<svg xmlns="http://www.w3.org/2000/svg" width="480" height="640" viewBox="0 0 480 640"><title>005-pocketwatch-wraith</title><defs><radialGradient id="gold"><stop stop-color="#fff2b0"/><stop offset=".55" stop-color="#d6a33d"/><stop offset="1" stop-color="#69452a"/></radialGradient><linearGradient id="cloak" x2="1" y2="1"><stop stop-color="#5b4e88"/><stop offset=".5" stop-color="#292d51"/><stop offset="1" stop-color="#101a2b"/></linearGradient></defs><rect width="480" height="640" fill="#14162b"/><circle cx="240" cy="240" r="184" fill="#6c5ca4" opacity=".12"/><circle cx="240" cy="240" r="145" fill="none" stroke="#b7a1ff" stroke-width="2" stroke-dasharray="2 11"/><path d="M0 450L85 402 146 437 240 376 322 430 401 388 480 430V640H0Z" fill="#242944"/><path d="M211 91Q240 60 269 91L269 119 211 119Z" fill="url(#gold)" stroke="#6b4527" stroke-width="6"/><path d="M226 74L226 40 240 28 254 40 254 74" fill="none" stroke="#d8b35c" stroke-width="8"/><path d="M165 151Q240 104 315 151L342 272 300 390 240 435 180 390 138 272Z" fill="url(#cloak)" stroke="#7d73a5" stroke-width="7"/><circle cx="240" cy="219" r="64" fill="url(#gold)" stroke="#4b3a36" stroke-width="8"/><circle cx="240" cy="219" r="48" fill="#172239" stroke="#f3d57a" stroke-width="4"/><path d="M240 180V219L268 239" fill="none" stroke="#fff0a5" stroke-width="6" stroke-linecap="round"/><circle cx="240" cy="219" r="7" fill="#ff765f"/><path d="M198 277L181 311 210 330 240 307 270 330 299 311 282 277" fill="#d0a449" stroke="#59412e" stroke-width="6"/><path d="M170 172L125 212 146 286 178 300M310 172L355 212 334 286 302 300" fill="none" stroke="#8b82b5" stroke-width="15"/><path d="M144 270L111 292 126 329 164 312M336 270L369 292 354 329 316 312" fill="url(#gold)" stroke="#493d37" stroke-width="6"/><path d="M190 385L166 445 195 475 229 447 236 414M290 385L314 445 285 475 251 447 244 414" fill="#303550" stroke="#c1a95e" stroke-width="7"/><path d="M164 464L145 493 205 507 228 476M316 464L335 493 275 507 252 476" fill="#b88d42" stroke="#59412e" stroke-width="6"/><path d="M101 136L121 121 137 139M350 111L369 94 384 115M76 346L103 332M374 354L401 369" stroke="#9b8bff" stroke-width="4"/><path d="M56 50L72 65 56 80M424 50L408 65 424 80" fill="none" stroke="#f2d36e" stroke-width="5"/></svg>