<svg xmlns="http://www.w3.org/2000/svg" width="480" height="640" viewBox="0 0 480 640"><title>008-pear-plague-doctor</title><defs><linearGradient id="p" x2="1" y2="1"><stop stop-color="#d7f17b"/><stop offset=".5" stop-color="#7baf4b"/><stop offset="1" stop-color="#345b3e"/></linearGradient><linearGradient id="coat" x2="1" y2="1"><stop stop-color="#d5d6bd"/><stop offset=".5" stop-color="#657c78"/><stop offset="1" stop-color="#263e48"/></linearGradient></defs><rect width="480" height="640" fill="#172a2e"/><path d="M0 460L91 401 153 438 240 372 322 435 396 389 480 432V640H0Z" fill="#263f40"/><path d="M218 103Q202 69 225 47Q250 61 248 99Q295 121 312 176L301 270 270 323 211 323 180 270 169 176Q181 125 218 103Z" fill="url(#p)" stroke="#244239" stroke-width="9"/><path d="M181 170Q240 135 300 170L289 229 240 260 191 229Z" fill="#d9d6b7" stroke="#374b49" stroke-width="8"/><path d="M192 190L222 179 235 198 219 218 193 211ZM247 198L260 179 289 190 286 213 261 218Z" fill="#142c35" stroke="#f4e7bd" stroke-width="4"/><path d="M204 197L223 192M258 197L278 192" stroke="#68f4db" stroke-width="5"/><path d="M219 225L240 246 261 225" fill="none" stroke="#8a493b" stroke-width="7"/><path d="M240 242L240 270" stroke="#e5e0c3" stroke-width="7"/><path d="M177 257L140 290 157 359 204 381 240 345 276 381 323 359 340 290 303 257" fill="url(#coat)" stroke="#203b45" stroke-width="9"/><path d="M204 282L240 306 276 282 264 354 240 375 216 354Z" fill="#b2c5b6" stroke="#314b4b" stroke-width="6"/><path d="M228 317L240 329 252 317" fill="none" stroke="#e3d39a" stroke-width="5"/><path d="M168 293L129 323 145 370 187 359M312 293L351 323 335 370 293 359" fill="url(#p)" stroke="#203b45" stroke-width="8"/><path d="M146 364L126 393 151 411 181 390M334 364L354 393 329 411 299 390" fill="#d5d6bd" stroke="#344b4b" stroke-width="6"/><path d="M208 375L188 438 213 472 236 445 239 397M272 375L292 438 267 472 244 445 241 397" fill="#3b5657" stroke="#c6d4bf" stroke-width="7"/><path d="M188 463L168 491 218 504 236 476M292 463L312 491 262 504 244 476" fill="#c7cfb6" stroke="#344b4b" stroke-width="6"/><path d="M92 135L119 118M357 143L383 123M79 344L105 356M375 343L400 331" stroke="#82e4c4" stroke-width="4"/><circle cx="120" cy="206" r="4" fill="#d9f48a"/><circle cx="365" cy="235" r="4" fill="#d9f48a"/></svg>