<svg xmlns="http://www.w3.org/2000/svg" width="480" height="640" viewBox="0 0 480 640">
<defs>
<linearGradient id="bg" x1="0" y1="0" x2="1" y2="1"><stop stop-color="#11182b"/><stop offset=".48" stop-color="#3b2639"/><stop offset="1" stop-color="#111725"/></linearGradient>
<linearGradient id="metal" x1="0" y1="0" x2=".8" y2="1"><stop stop-color="#f2f0df"/><stop offset=".25" stop-color="#8495a9"/><stop offset=".6" stop-color="#3b4a60"/><stop offset="1" stop-color="#171e2b"/></linearGradient>
<linearGradient id="accent" x1="0" y1="0" x2="1" y2="1"><stop stop-color="#f3f7ff"/><stop offset="1" stop-color="#b9d1dc"/></linearGradient>
<radialGradient id="flare"><stop stop-color="#ff456c" stop-opacity=".6"/><stop offset="1" stop-color="#ff456c" stop-opacity="0"/></radialGradient>
<pattern id="grid" width="28" height="28" patternUnits="userSpaceOnUse"><path d="M28 0H0V28" fill="none" stroke="#dce8ff" stroke-opacity=".08"/></pattern>
</defs>
<rect width="480" height="640" fill="url(#bg)"/><rect width="480" height="640" fill="url(#grid)"/>
<circle cx="350" cy="183" r="180" fill="url(#flare)"/>
<path d="M0 440L74 352 119 381 177 300 221 355 280 287 350 369 409 320 480 382V640H0Z" fill="#0d1420" stroke="#718094" stroke-opacity=".45" stroke-width="3"/>
<path d="M0 493l75-30 34 19 69-39 63 30 55-38 79 44 51-29 54 27" fill="none" stroke="#ff456c" stroke-opacity=".7" stroke-width="3"/>
<g opacity=".8" stroke="#ff456c" stroke-width="3"><path d="M34 112l35-20 30 20-30 20Z" fill="none"/><path d="M390 72l24 14v28l-24 14-24-14V86Z" fill="none"/><path d="M30 273h62m-31-31v62"/></g>
<path d="M344 285L411 177M343 285L405 321" stroke="#ff456c" stroke-width="12" stroke-linecap="round"/>
<!-- airborne torso -->
<path d="M204 252Q244 219 292 239L320 292 290 354 229 337 194 294Z" fill="url(#metal)" stroke="#151923" stroke-width="12" stroke-linejoin="round"/>
<path d="M214 260l44 8 21 34-29 29-31-18Z" fill="url(#accent)" stroke="#24212a" stroke-width="7"/>
<path d="M236 274l18 4 10 19-17 13-18-11Z" fill="#ff456c" stroke="#f8f0d9" stroke-width="3"/>
<path d="M205 287l-48 24-34-18-17 22 48 35 65-30M292 277l43-25 24 20-37 50-36-4" fill="url(#metal)" stroke="#151923" stroke-width="12" stroke-linejoin="round"/>
<path d="M111 303l-18 16 18 13 18-16M350 270l18-8 11 14-15 17" fill="#b9d1dc" stroke="#171c29" stroke-width="7"/>
<path d="M226 330l-35 42-43 11 8 24 65-9 41-42M282 339l28 40 48 8-4 23-68-4-31-44" fill="url(#metal)" stroke="#151923" stroke-width="12" stroke-linejoin="round"/>
<path d="M154 383l-15 22 22 9 16-17M345 386l21 5 1 19-26 1" fill="#b9d1dc" stroke="#171c29" stroke-width="7"/>
<circle cx="243" cy="151" r="24" fill="none" stroke="#b9d1dc" stroke-width="14"/><circle cx="296" cy="173" r="24" fill="none" stroke="#b9d1dc" stroke-width="14"/><path d="M259 161L333 90Q350 78 357 93L352 109 282 181M261 164L326 226Q342 237 351 221L344 207 281 151" fill="#b9d1dc" stroke="#202633" stroke-width="8"/>
<!-- face and armor details -->
<path d="M225 169l30-20 43 12-2 27-26 23-37-9Z" fill="#151b28" stroke="#11131d" stroke-width="7"/>
<path d="M233 173l24-8 4 11-23 9Z" fill="#ff456c"/><path d="M274 164l16 5-5 11-15-4Z" fill="#f3f7ff"/>
<path d="M217 224l31 8 17-13 20 8-11 19-41 2Z" fill="#b9d1dc" stroke="#171b27" stroke-width="6"/>
<path d="M220 245l-15 35m101-35 21 27M238 309l-8 15m42-10 12 17" stroke="#f3f7ff" stroke-width="4" stroke-linecap="round"/>
<g fill="#ffe8b2"><circle cx="207" cy="289" r="4"/><circle cx="302" cy="294" r="4"/><circle cx="252" cy="246" r="3"/><circle cx="277" cy="354" r="3"/></g>
<g stroke="#ff456c" stroke-width="3" fill="none"><path d="M74 425l40-15 25 8M356 433l34-15 28 8"/><path d="M56 451h32m-16-16v32M410 456h25m-12-12v24"/></g>
</svg>